/* XPM */
static char *_a431b1e88464cf5d5c0b64dc0c7d412VVjtGHAlBEtktMoP[] = {
/* columns rows colors chars-per-pixel */
"128 128 52 1 ",
"  c None",
". c black",
"X c #000100",
"o c #283E19",
"O c #293E19",
"+ c #2B3E18",
"@ c #2B3E19",
"# c #2B3F19",
"$ c #2B3E1B",
"% c #392F22",
"& c #382F23",
"* c #392F23",
"= c #405C26",
"- c #425C26",
"; c #5A4B3A",
": c #577935",
"> c #567A35",
", c #577A35",
"< c #567B35",
"1 c #577B35",
"2 c #577B37",
"3 c #7E6956",
"4 c #7E6B56",
"5 c #7E6B57",
"6 c #9C4F2B",
"7 c #C0653A",
"8 c #8D7C68",
"9 c #8D7D68",
"0 c #8F7C68",
"q c #8D7E68",
"w c #8D7C6A",
"e c #709B45",
"r c #709B47",
"t c #A58039",
"y c #A58239",
"u c #A5803B",
"i c #D1A64C",
"p c #D1A64E",
"a c #F2C566",
"s c #B19F8B",
"d c #B39F8B",
"f c #D9CAB8",
"g c #D9CAB9",
"h c #DBCAB8",
"j c #D9CBBA",
"k c #FAE8BD",
"l c #FFFFFD",
"z c #FDFDFF",
"x c #FFFCFF",
"c c #FFFFFE",
"v c #FEFFFF",
"b c white",
/* pixels */
"                                                                                                                                ",
"                                                                                                                                ",
"                                                                                                                                ",
"                                                                                                                                ",
"                                                                                                                                ",
"                                                                                                                                ",
"                                                                                                                                ",
"                                                                                                                                ",
"                                                                                                                                ",
"                                                                                                                                ",
"                                                                                                                                ",
"                                                                                                                                ",
"                                                                                                                                ",
"                                                                                                                                ",
"                                                                                                                                ",
"                                                                                                                                ",
"                                                                                                                                ",
"                                                                                                                                ",
"                                                                                                                                ",
"                                                                                                                                ",
"                                                                                                                                ",
"                                                                                                                                ",
"                                                                                                                                ",
"                                                                                                                                ",
"                                                                                                                                ",
"                                                                                                                                ",
"                                                                                                                                ",
"                                                                                                                                ",
"                                                           bbbbbbbbbbbbbbbbbbbbbbbbbbbb                                         ",
"                                                           bbbbbbbbbbbbbbbbbbbbbbbbbbbb                                         ",
"                                                           bbbbbbbbbbbbbbbbbbbbbbbbbbbb                                         ",
"                                                           bbbbbbbbbbbbbbbbbbbbbbbbbbbb                                         ",
"                                                       bbbb@@@@@@@@@@@@@@@@@@@@@@@@@@@@bbbb                                     ",
"                                                       bbbb@@@@@@@@@@@@@@@@@@@@@@@@@@@@bbbb                                     ",
"                                                       bbbb@@@@@@@@@@@@@@@@@@@@@@@@@@@@bbbb                                     ",
"                                                       bbbb@@@@@@@@@@@@@@@@@@@@@@@@@@@@bbbb                                     ",
"                                                   bbbb@@@@rrrrrrrrrrrrrrrrrrrrrrrrrrrr@@@@bbbb                                 ",
"                                                   bbbb@@@@rrrrrrrrrrrrrrrrrrrrrrrrrrrr@@@@bbbb                                 ",
"                                                   bbbb@@@@rrrrrrrrrrrrrrrrrrrrrrrrrrrr@@@@bbbb                                 ",
"                                                   bbbb@@@@rrrrrrrrrrrrrrrrrrrrrrrrrrrr@@@@bbbb                                 ",
"                                               bbbb@@@@rrrr<<<<<1<<<<<11<<<<<<<<<<<<<<<rrrr@@@@bbbb                             ",
"                                               bbbb@@@@rrrr<<<<<1<<<<<11<<<<<<<<<<<<<<<rrrr@@@@bbbb                             ",
"                                               bbbb@@@@rrrr<<<<<<<<<<<<<<<<<<<<<<<<<<<<rrrr@@@@bbbb                             ",
"                                               bbbb@@@@rrrr<<<<<<<<<<<<<<<111<<<<<<<<<<rrrr@@@@bbbb                             ",
"                                               bbbb@@@@<<<<<<<<<<<<<<<11<11<<11<<<<<<<<<<<<@@@@bbbb                             ",
"                                               bbbb@@@@<<<<<<<<<<1<<<<1<<1<<<<11<<<<<<<<<<<@@@@bbbb                             ",
"                                               bbbb@@@@1<<<<<<<<<<<2<<<<<<<<<<<<<<<<<11<<<<@@@@bbbb                             ",
"                                               bbbb@@@@<<<<<<<<<<<<<<<<<<<<<<<<<<<<<<1<<<<<@@@@bbbb                             ",
"                                               bbbb@@@@<<<<....bbbb<<<<<<<<<<<<<<<<<<<<<<<<@@@@bbbb                             ",
"                                               bbbb@@@@<<<<....bbbb<<<<<<<<<<<<<<<<<<<<<<<<@@@@bbbb                             ",
"                                               bbbb@@@@<<<<....bbbb<<<<<<<<<<<<<<<<<<<<<<<<@@@@bbbb                             ",
"                                               bbbb@@@@<<<<....bbbb<<<<<<<<<<<<<<<<<<<<<<<<@@@@bbbb                             ",
"                                               bbbb@@@@<<<<........<<<<<<<<<<<<ttttttttttttttttttttbbbb                         ",
"                                               bbbb@@@@<<<<........<<<<<1<<<<<<ttttttttttttttttttttbbbb                         ",
"                                               bbbb@@@@<<<<........<<1<<1<<<<11ttttttttttttttttttttbbbb                         ",
"                                               bbbb@@@@<<<<........<<1<<<1<<<<1ttttttttttttttttttttbbbb                         ",
"                                               bbbb@@@@<<<<rrrrrrrr<<<<<<<<ttttaaaaaaaaaaaakkkkkkkkttttbbbb                     ",
"                                               bbbb@@@@<<<<rrrrrrrr<<<<<<<<ttttaaaaaaaaaaaakkkkkkkkttttbbbb                     ",
"                                               bbbb@@@@<<<<rrrrrrrr<<<<<<<<ttttaaaaaaaaaaaakkkkkkkkttttbbbb                     ",
"                                               bbbb@@@@<<<<rrrrrrrr<<<<<<<<ttttaaaaaaaaaaaakkkkkkkkttttbbbb                     ",
"                                               bbbb@@@@<<<<<<<<<11<<<<<<<<<ttttpppppppppppppppppppppppptttt                     ",
"                                               bbbb@@@@<<<<<<<<<11<<<<<<<<<ttttppppppppppppippppppppppptttt                     ",
"                                               bbbb@@@+<<<<<<<<<<1<<<<<<<<<ttttpppppppppppppppppppppppputtt                     ",
"                                               bbbb@@@@<<<<<<<<<<<<<<<<<<<<ttttpppppppppppppppppppppppptttt                     ",
"                                               bbbb@@@@====<<<<<<<<<<11<111====ttttttttttttttttttttttttbbbb                     ",
"                                               bbbb@@@@====<<<<<<<<<<<1<111====ttttttttttttttttttttttttbbbb                     ",
"                                               bbbb@@@@====<<<<<<<<<<<<<11<====ttttttttttttttttttttttttbbbb                     ",
"                                               bbbb@@@@====<<<<<<<<<<<<<1<<====ttttttttttttttttttttttttbbbb                     ",
"                                   bbbbbbbbbbbb    bbbb@@@@====<<<<<<<<<<<<<<<<========@@@@bbbbbbbbbbbb                         ",
"                                   bbbbbbbbbbbb    bbbb@@@@====<1<<<<<<<<<<<<<<========@@@@bbbbbbbbbbbb                         ",
"                                   bbbbbbbbbbbb    bbbb@@@@====<11<<<<11<<<<<<<========@@@@bbbbbbbbbbbb                         ",
"                                   bbbbbbbbbbbb    bbbb@@@@====<<<<<<<<1<<<<<<<========@@@@bbbbbbbbbbbb                         ",
"                               bbbb888888888888bbbb    bbbb@@@@bbbbbbbbbbbbbbbbbbbb@@@@bbbb                                     ",
"                               bbbb888888888888bbbb    bbbb@@@@bbbbbbbbbbbbbbbbbbbb@@@@bbbb                                     ",
"                               bbbb888888888888bbbb    bbbb@@@@bbbbbbbbbbbbbbbbbbbb@@@@bbbb                                     ",
"                               bbbb888888888888bbbb    bbbb@@@@bbbbbbbbbbbbbbbbbbbb@@@@bbbb                                     ",
"                           bbbb8888bbbbbbbbbbbb8888bbbbbbbb****;;;;;;;;;;;;;;;;;;;;****bbbb                                     ",
"                           bbbb8888bbbbbbbbbbbb8888bbbbbbbb****;;;;;;;;;;;;;;;;;;;;****bbbb                                     ",
"                           bbbb8888bbbbbbbbbbbb8888bbbbbbbb****;;;;;;;;;;;;;;;;;;;;****bbbb                                     ",
"                           bbbb8888bbbbbbbbbbbb8888bbbbbbbb****;;;;;;;;;;;;;;;;;;;;****bbbb                                     ",
"                       bbbb8888bbbbffffffffffffbbbb8888888844444444444444444444;;;;****bbbb                                     ",
"                       bbbb8888bbbbffffffffffffbbbb8888888844444444444444444444;;;;****bbbb                                     ",
"                       bbbb8888bbbbffffffffffffbbbb8888888844444444444444444444;;;;****bbbb                                     ",
"                       bbbb8888bbbbffffffffffffbbbb8888888844444444444444444444;;;;****bbbb                                     ",
"                       bbbb8888ffffffff88888888ffffffffffffbbbbbbbb4444444444444444;;;;****bbbb                                 ",
"                       bbbb8888ffffffff88888888ffffffffffffbbbbbbbb4444444444444444;;;;****bbbb                                 ",
"                       bbbb8888ffffffff88888888ffffffffffffbbbbbbbb4444444444444444;;;;****bbbb                                 ",
"                       bbbb8888ffffffff88888888ffffffffffffbbbbbbbb4444444444444444;;;;****bbbb                                 ",
"                       bbbb8888ffff8888ffffffffffffffffffffffffffffbbbb4444444444444444****bbbb                                 ",
"                       bbbb8888ffff8888ffffffffffffffffffffffffffffbbbb4444444444444444****bbbb                                 ",
"                       bbbb8888ffff8888ffffffffffffffffffffffffffffbbbb4444444444444444****bbbb                                 ",
"                       bbbb8888ffff8888ffffffffffffffffffffffffffffbbbb4444444444444444****bbbb                                 ",
"                       bbbb8888ffff****4444ffffffffffffffffffffffffffff4444444444444444****bbbb                                 ",
"                       bbbb8888ffff****4444ffffffffffffffffffffffffffff4444444444444444****bbbb                                 ",
"                       bbbb8888ffff****4444ffffffffffffffffffffffffffff4444444444444444****bbbb                                 ",
"                       bbbb8888ffff****4444ffffffffffffffffffffffffffff4444444444444444****bbbb                                 ",
"                       bbbb8888ssss****44444444ffffffffffffffffffff4444444444444444;;;;****bbbb                                 ",
"                       bbbb8888ssss****44444444ffffffffffffffffffff4444444444444444;;;;****bbbb                                 ",
"                       bbbb8888ssss****44444444ffffffffffffffffffff4444444444444444;;;;****bbbb                                 ",
"                       bbbb8888ssss****44444444ffffffffffffffffffff4444444444444444;;;;****bbbb                                 ",
"                       bbbb8888sssssssd****4444444444444444444444444444****;;;;;;;;;;;;****bbbb                                 ",
"                       bbbb8888ssssssss****4444444444444444444444444444****;;;;;;;;;;;;****bbbb                                 ",
"                       bbbb8888ssssssss****4444444444444444444444444444****;;;;;;;;;;;;****bbbb                                 ",
"                       bbbb8888ssssssss****4444444444444444444444444444****;;;;;;;;;;;;****bbbb                                 ",
"                           bbbb8888ssssssss****************************;;;;;;;;;;;;****bbbb                                     ",
"                           bbbb8888ssssssss****************************;;;;;;;;;;;;****bbbb                                     ",
"                           bbbb8888ssssssss****************************;;;;;;;;;;;;****bbbb                                     ",
"                           bbbb8888ssssssss****************************;;;;;;;;;;;;****bbbb                                     ",
"                               bbbb8888ssssssssssssssssssssssssssss;;;;;;;;;;;;****bbbb                                         ",
"                               bbbb8888ssssssssssssssssssssssssssss;;;;;;;;;;;;****bbbb                                         ",
"                               bbbb8888ssssssssssssssssssssssssssss;;;;;;;;;;;;****bbbb                                         ",
"                               bbbb8888ssssssssssssssssssssssssssss;;;;;;;;;;;;****bbbb                                         ",
"                                   bbbb888888888888888888888888****************bbbb                                             ",
"                                   bbbb888888888888888888888888****************bbbb                                             ",
"                                   bbbb888888888888888888888888****************bbbb                                             ",
"                                   bbbb888888888888888888888888****************bbbb                                             ",
"                                       bbbb777777777777bbbbbbbbbbbb66666666bbbb                                                 ",
"                                       bbbb777777777777bbbbxbbbbbbb66666666bbbb                                                 ",
"                                       bbbb777777777777bbbbxbbbbbbb66666666bbbb                                                 ",
"                                       bbbb777777777777bbbbxbbbbbbb66666666bbbb                                                 ",
"                                       bbbb7777777777777777bbbbbbbb666666666666bbbb                                             ",
"                                       bbbb7777777777777777bbbbbbbb666666666666bbbb                                             ",
"                                       bbbb7777777777777777bbbbbbbb666666666666bbbb                                             ",
"                                       bbbb7777777777777777bbbbbbbb666666666666bbbb                                             ",
"                                           bbbbbbbbbbbbbbbb        bbbbbbbbbbbb                                                 ",
"                                           bbbbbbbbbbbbbbbb        bbbbbbbbbbbb                                                 ",
"                                           bbbbbbbbbbbbbbbb        bbbbbbbbbbbb                                                 ",
"                                           bbbbbbbbbbbbbbbb        bbbbbbbbbbbb                                                 "
};
