/* XPM */
static char *_c516ca5c7634105d4c24ebb28f1e3e1d3u5qbNhk0yEAoBz[] = {
/* columns rows colors chars-per-pixel */
"32 32 36 1 ",
"  c None",
". c black",
"X c #000100",
"o c #293E19",
"O c #2B3E19",
"+ c #2B3F19",
"@ c #382F23",
"# c #392F23",
"$ c #405C26",
"% c #5A4B3A",
"& c #567B35",
"* c #577B35",
"= c #7E6B56",
"- c #9C4F2B",
"; c #C0653A",
": c #8D7C68",
"> c #8D7D68",
", c #8D7E68",
"< c #709B45",
"1 c #709B47",
"2 c #A58039",
"3 c #A58239",
"4 c #A5803B",
"5 c #D1A64C",
"6 c #D1A64E",
"7 c #F2C566",
"8 c #B19F8B",
"9 c #B39F8B",
"0 c #D9CAB8",
"q c #DBCAB8",
"w c #FAE8BD",
"e c #FFFCFF",
"r c #FDFFFF",
"t c #FFFFFE",
"y c #FEFFFF",
"u c white",
/* pixels */
"                                ",
"                                ",
"                                ",
"                                ",
"                                ",
"                                ",
"                                ",
"               uuuuuuu          ",
"              uOOOOOOOu         ",
"             uO1111111Ou        ",
"            uO1&&&&&&&1Ou       ",
"            uO&&&&&&&&&Ou       ",
"            uO&.u&&&&&&Ou       ",
"            uO&..&&&22222u      ",
"            uO&11&&2777ww2u     ",
"            uO&&&&&26666662     ",
"            uO$&&&&$222222u     ",
"         uuu uO$&&&&$$Ouuu      ",
"        u:::u uOuuuuuOu         ",
"       u:uuu:uu#%%%%%#u         ",
"      u:u000u::=====%#u         ",
"      u:00::000uu====%#u        ",
"      u:0:0000000u====#u        ",
"      u:0#=0000000====#u        ",
"      u:8#==00000====%#u        ",
"      u:88#=======#%%%#u        ",
"       u:88#######%%%#u         ",
"        u:8888888%%%#u          ",
"         u::::::####u           ",
"          u;;;uuu--u            ",
"          u;;;;uu---u           ",
"           uuuu  uuu            "
};
