/* XPM */
static char *_7a725e4fd8b47dacaa02505bdb2fe69Mfqsy5hGijudMDLs[] = {
/* columns rows colors chars-per-pixel */
"128 128 6 1 ",
"  c #3C5754",
". c #4F7A54",
"X c #74A74F",
"o c #76A74F",
"O c #E5B558",
"+ c #FCED90",
/* pixels */
"ooooooo........ooooooooooooooooooooooooooooooooooooooooooooooooooooooooooooooooooooooooooooooooooooooooooooooooooooooooooooooooO",
"ooooooo........ooooooooooooooooooooooooooooooooooooooooooooooooooooooooooooooooooooooooooooooooooooooooooooooooooooooooooooooooO",
"ooooooo........ooooooooooooooooooooooooooooooooooooooooooooooooooooooooooooooooooooooooooooooooooooooooooooooooooooooooooooooooO",
"ooooooo........ooooooooooooooooooooooooooooooooooooooooooooooooooooooooooooooooooooooooooooooooooooooooooooooooooooooooooooooooO",
"ooooooo........ooooooooooooooooooooooooooooooooooooooooooooooooooooooooooooooooooooooooooooooooooooooooooooooooooooooooooooooooO",
"ooooooo........ooooooooooooooooooooooooooooooooooooooooooooooooooooooooooooooooooooooooooooooooooooooooooooooooooooooooooooooooO",
"ooooooo........ooooooooooooooooooooooooooooooooooooooooooooooooooooooooooooooooooooooooooooooooooooooooooooooooooooooooooooooooO",
"ooooooo........ooooooooooooooooooooooooooooooooooooooooooooooooooooooooooooooooooooooooooooooooooooooooooooooooooooooooooooooooO",
"ooooooooooooooooooooooooooooooooooooooooooooooooooooooooooooooooooooooooooooooooooooooo........ooooooooooooooooooooooooooooooooO",
"ooooooooooooooooooooooooooooooooooooooooooooooooooooooooooooooooooooooooooooooooooooooo........ooooooooooooooooooooooooooooooooO",
"ooooooooooooooooooooooooooooooooooooooooooooooooooooooooooooooooooooooooooooooooooooooo........ooooooooooooooooooooooooooooooooO",
"ooooooooooooooooooooooooooooooooooooooooooooooooooooooooooooooooooooooooooooooooooooooo........ooooooooooooooooooooooooooooooooO",
"ooooooooooooooooooooooooooooooooooooooooooooooooooooooooooooooooooooooooooooooooooooooo........ooooooooooooooooooooooooooooooooO",
"ooooooooooooooooooooooooooooooooooooooooooooooooooooooooooooooooooooooooooooooooooooooo........ooooooooooooooooooooooooooooooooO",
"ooooooooooooooooooooooooooooooooooooooooooooooooooooooooooooooooooooooooooooooooooooooo........ooooooooooooooooooooooooooooooooO",
"ooooooooooooooooooooooooooooooooooooooooooooooooooooooooooooooooooooooooooooooooooooooo........ooooooooooooooooooooooooooooooooO",
"ooooooooooooooooooooooo........ooooooooooooooooooooooooooooooooooooooooooooooooooooooooooooooooooooooooooooooooooooooooooooooooO",
"ooooooooooooooooooooooo........ooooooooooooooooooooooooooooooooooooooooooooooooooooooooooooooooooooooooooooooooooooooooooooooooO",
"ooooooooooooooooooooooo........ooooooooooooooooooooooooooooooooooooooooooooooooooooooooooooooooooooooooooooooooooooooooooooooooO",
"ooooooooooooooooooooooo........ooooooooooooooooooooooooooooooooooooooooooooooooooooooooooooooooooooooooooooooooooooooooooooooooO",
"ooooooooooooooooooooooo........ooooooooooooooooooooooooooooooooooooooooooooooooooooooooooooooooooooooooooooooooooooooooooooooooO",
"ooooooooooooooooooooooo........ooooooooooooooooooooooooooooooooooooooooooooooooooooooooooooooooooooooooooooooooooooooooooooooooO",
"ooooooooooooooooooooooo........ooooooooooooooooooooooooooooooooooooooooooooooooooooooooooooooooooooooooooooooooooooooooooooooooO",
"ooooooooooooooooooooooo........ooooooooooooooooooooooooooooooooooooooooooooooooooooooooooooooooooooooooooooooooooooooooooooooooO",
"ooooooooooooooooooooooooooooooo........oooooooo........ooooooooooooooooooooooooooooooooooooooooooooooooooooooooooooooooooooooooO",
"ooooooooooooooooooooooooooooooo........oooooooo........ooooooooooooooooooooooooooooooooooooooooooooooooooooooooooooooooooooooooO",
"ooooooooooooooooooooooooooooooo........oooooooo........ooooooooooooooooooooooooooooooooooooooooooooooooooooooooooooooooooooooooO",
"ooooooooooooooooooooooooooooooo........oooooooo........ooooooooooooooooooooooooooooooooooooooooooooooooooooooooooooooooooooooooO",
"ooooooooooooooooooooooooooooooo........oooooooo........ooooooooooooooooooooooooooooooooooooooooooooooooooooooooooooooooooooooooO",
"ooooooooooooooooooooooooooooooo........oooooooo........ooooooooooooooooooooooooooooooooooooooooooooooooooooooooooooooooooooooooO",
"ooooooooooooooooooooooooooooooo........oooooooo........ooooooooooooooooooooooooooooooooooooooooooooooooooooooooooooooooooooooooO",
"ooooooooooooooooooooooooooooooo........oooooooo........ooooooooooooooooooooooooooooooooooooooooooooooooooooooooooooooooooooooooO",
"ooooooo........oooooooo........        ........ooooooooooooooooooooooooooooooooooooooooooooooooooooooooooooooooooooooooooooooooO",
"ooooooo........oooooooo........        ........ooooooooooooooooooooooooooooooooooooooooooooooooooooooooooooooooooooooooooooooooO",
"ooooooo........oooooooo........        ........ooooooooooooooooooooooooooooooooooooooooooooooooooooooooooooooooooooooooooooooooO",
"ooooooo........oooooooo........        ........ooooooooooooooooooooooooooooooooooooooooooooooooooooooooooooooooooooooooooooooooO",
"ooooooo........oooooooo........        ........ooooooooooooooooooooooooooooooooooooooooooooooooooooooooooooooooooooooooooooooooO",
"ooooooo........oooooooo........        ........ooooooooooooooooooooooooooooooooooooooooooooooooooooooooooooooooooooooooooooooooO",
"ooooooo........oooooooo........        ........ooooooooooooooooooooooooooooooooooooooooooooooooooooooooooooooooooooooooooooooooO",
"ooooooo........oooooooo........        ........ooooooooooooooooooooooooooooooooooooooooooooooooooooooooooooooooooooooooooooooooO",
"ooooooooooooooo........                        ................ooooooooooooooooooooooooooooooooooooooooooooooooooooooooooooooooO",
"ooooooooooooooo........                        ................ooooooooooooooooooooooooooooooooooooooooooooooooooooooooooooooooO",
"ooooooooooooooo........                        ................ooooooooooooooooooooooooooooooooooooooooooooooooooooooooooooooooO",
"ooooooooooooooo........                        ................ooooooooooooooooooooooooooooooooooooooooooooooooooooooooooooooooO",
"ooooooooooooooo........                        ................ooooooooooooooooooooooooooooooooooooooooooooooooooooooooooooooooO",
"ooooooooooooooo........                        ................ooooooooooooooooooooooooooooooooooooooooooooooooooooooooooooooooO",
"ooooooooooooooo........                        ................ooooooooooooooooooooooooooooooooooooooooooooooooooooooooooooooooO",
"ooooooooooooooo........                        ................ooooooooooooooooooooooooooooooooooooooooooooooooooooooooooooooooO",
"oooooooooooooooooooooooooooooooooooooooooooooooooooooooooooooooooooooooooooooooooooooooooooooooooooooooooooooooooooooooooooooooO",
"oooooooooooooooooooooooooooooooooooooooooooooooooooooooooooooooooooooooooooooooooooooooooooooooooooooooooooooooooooooooooooooooO",
"oooooooooooooooooooooooooooooooooooooooooooooooooooooooooooooooooooooooooooooooooooooooooooooooooooooooooooooooooooooooooooooooO",
"oooooooooooooooooooooooooooooooooooooooooooooooooooooooooooooooooooooooooooooooooooooooooooooooooooooooooooooooooooooooooooooooO",
"oooooooooooooooooooooooooooooooooooooooooooooooooooooooooooooooooooooooooooooooooooooooooooooooooooooooooooooooooooooooooooooooO",
"oooooooooooooooooooooooooooooooooooooooooooooooooooooooooooooooooooooooooooooooooooooooooooooooooooooooooooooooooooooooooooooooO",
"oooooooooooooooooooooooooooooooooooooooooooooooooooooooooooooooooooooooooooooooooooooooooooooooooooooooooooooooooooooooooooooooO",
"oooooooooooooooooooooooooooooooooooooooooooooooooooooooooooooooooooooooooooooooooooooooooooooooooooooooooooooooooooooooooooooooO",
"ooooooooooooooooooooooooooooooooooooooooooooooooooooooooooooooooooooooooooooooooooooooooooooooooooooooooooooooo........ooooooooO",
"ooooooooooooooooooooooooooooooooooooooooooooooooooooooooooooooooooooooooooooooooooooooooooooooooooooooooooooooo........ooooooooO",
"ooooooooooooooooooooooooooooooooooooooooooooooooooooooooooooooooooooooooooooooooooooooooooooooooooooooooooooooo........ooooooooO",
"ooooooooooooooooooooooooooooooooooooooooooooooooooooooooooooooooooooooooooooooooooooooooooooooooooooooooooooooo........ooooooooO",
"ooooooooooooooooooooooooooooooooooooooooooooooooooooooooooooooooooooooooooooooooooooooooooooooooooooooooooooooo........ooooooooO",
"ooooooooooooooooooooooooooooooooooooooooooooooooooooooooooooooooooooooooooooooooooooooooooooooooooooooooooooooo........ooooooooO",
"ooooooooooooooooooooooooooooooooooooooooooooooooooooooooooooooooooooooooooooooooooooooooooooooooooooooooooooooo........ooooooooO",
"ooooooooooooooooooooooooooooooooooooooooooooooooooooooooooooooooooooooooooooooooooooooooooooooooooooooooooooooo........ooooooooO",
"oooooooooooooooooooooooooooooooooooooooooooooooooooooooooooooooooooooooooooooooooooooooooooooooooooooooooooooooooooooooooooooooO",
"oooooooooooooooooooooooooooooooooooooooooooooooooooooooooooooooooooooooooooooooooooooooooooooooooooooooooooooooooooooooooooooooO",
"oooooooooooooooooooooooooooooooooooooooooooooooooooooooooooooooooooooooooooooooooooooooooooooooooooooooooooooooooooooooooooooooO",
"oooooooooooooooooooooooooooooooooooooooooooooooooooooooooooooooooooooooooooooooooooooooooooooooooooooooooooooooooooooooooooooooO",
"oooooooooooooooooooooooooooooooooooooooooooooooooooooooooooooooooooooooooooooooooooooooooooooooooooooooooooooooooooooooooooooooO",
"oooooooooooooooooooooooooooooooooooooooooooooooooooooooooooooooooooooooooooooooooooooooooooooooooooooooooooooooooooooooooooooooO",
"oooooooooooooooooooooooooooooooooooooooooooooooooooooooooooooooooooooooooooooooooooooooooooooooooooooooooooooooooooooooooooooooO",
"oooooooooooooooooooooooooooooooooooooooooooooooooooooooooooooooooooooooooooooooooooooooooooooooooooooooooooooooooooooooooooooooO",
"ooooooooooooooooooooooooooooooooooooooo........ooooooooooooooooooooooooooooooooooooooooooooooooooooooooooooooooooooooooooooooooO",
"ooooooooooooooooooooooooooooooooooooooo........ooooooooooooooooooooooooooooooooooooooooooooooooooooooooooooooooooooooooooooooooO",
"ooooooooooooooooooooooooooooooooooooooo........ooooooooooooooooooooooooooooooooooooooooooooooooooooooooooooooooooooooooooooooooO",
"ooooooooooooooooooooooooooooooooooooooo........ooooooooooooooooooooooooooooooooooooooooooooooooooooooooooooooooooooooooooooooooO",
"ooooooooooooooooooooooooooooooooooooooo........ooooooooooooooooooooooooooooooooooooooooooooooooooooooooooooooooooooooooooooooooO",
"ooooooooooooooooooooooooooooooooooooooo........ooooooooooooooooooooooooooooooooooooooooooooooooooooooooooooooooooooooooooooooooO",
"ooooooooooooooooooooooooooooooooooooooo........ooooooooooooooooooooooooooooooooooooooooooooooooooooooooooooooooooooooooooooooooO",
"ooooooooooooooooooooooooooooooooooooooo........ooooooooooooooooooooooooooooooooooooooooooooooooooooooooooooooooooooooooooooooooO",
".......oooooooooooooooooooooooooooooooooooooooooooooooooooooooooooooooooooooooooooooooooooooooooooooooooooooooooooooooooooooooo+",
".......oooooooooooooooooooooooooooooooooooooooooooooooooooooooooooooooooooooooooooooooooooooooooooooooooooooooooooooooooooooooo+",
".......oooooooooooooooooooooooooooooooooooooooooooooooooooooooooooooooooooooooooooooooooooooooooooooooooooooooooooooooooooooooo+",
".......oooooooooooooooooooooooooooooooooooooooooooooooooooooooooooooooooooooooooooooooooooooooooooooooooooooooooooooooooooooooo+",
".......oooooooooooooooooooooooooooooooooooooooooooooooooooooooooooooooooooooooooooooooooooooooooooooooooooooooooooooooooooooooo+",
".......oooooooooooooooooooooooooooooooooooooooooooooooooooooooooooooooooooooooooooooooooooooooooooooooooooooooooooooooooooooooo+",
".......oooooooooooooooooooooooooooooooooooooooooooooooooooooooooooooooooooooooooooooooooooooooooooooooooooooooooooooooooooooooo+",
".......oooooooooooooooooooooooooooooooooooooooooooooooooooooooooooooooooooooooooooooooooooooooooooooooooooooooooooooooooooooooo+",
"ooooooooooooooooooooooooooooooooooooooooooooooooooooooooooooooooooooooooooooooo........oooooooooooooooo........oooooooo........O",
"ooooooooooooooooooooooooooooooooooooooooooooooooooooooooooooooooooooooooooooooo........oooooooooooooooo........oooooooo........O",
"ooooooooooooooooooooooooooooooooooooooooooooooooooooooooooooooooooooooooooooooo........oooooooooooooooo........oooooooo........O",
"ooooooooooooooooooooooooooooooooooooooooooooooooooooooooooooooooooooooooooooooo........oooooooooooooooo........oooooooo........O",
"ooooooooooooooooooooooooooooooooooooooooooooooooooooooooooooooooooooooooooooooo........oooooooooooooooo........oooooooo........O",
"ooooooooooooooooooooooooooooooooooooooooooooooooooooooooooooooooooooooooooooooo........oooooooooooooooo........oooooooo........O",
"ooooooooooooooooooooooooooooooooooooooooooooooooooooooooooooooooooooooooooooooo........oooooooooooooooo........oooooooo........O",
"ooooooooooooooooooooooooooooooooooooooooooooooooooooooooooooooooooooooooooooooo........oooooooooooooooo........oooooooo........O",
".......oooooooo........oooooooooooooooooooooooooooooooooooooooooooooooooooooooooooooooooooooooooooooooooooooooo........        +",
".......oooooooo........oooooooooooooooooooooooooooooooooooooooooooooooooooooooooooooooooooooooooooooooooooooooo........        +",
".......oooooooo........oooooooooooooooooooooooooooooooooooooooooooooooooooooooooooooooooooooooooooooooooooooooo........        +",
".......oooooooo........oooooooooooooooooooooooooooooooooooooooooooooooooooooooooooooooooooooooooooooooooooooooo........        +",
".......oooooooo........oooooooooooooooooooooooooooooooooooooooooooooooooooooooooooooooooooooooooooooooooooooooo........        +",
".......oooooooo........oooooooooooooooooooooooooooooooooooooooooooooooooooooooooooooooooooooooooooooooooooooooo........        +",
".......oooooooo........oooooooooooooooooooooooooooooooooooooooooooooooooooooooooooooooooooooooooooooooooooooooo........        +",
".......oooooooo........oooooooooooooooooooooooooooooooooooooooooooooooooooooooooooooooooooooooooooooooooooooooo........        +",
"       ........oooooooooooooooooooooooooooooooooooooooooooooooooooooooooooooooooooooooooooooooo................                O",
"       ........oooooooooooooooooooooooooooooooooooooooooooooooooooooooooooooooooooooooooooooooo................                O",
"       ........oooooooooooooooooooooooooooooooooooooooooooooooooooooooooooooooooooooooooooooooo................                O",
"       ........oooooooooooooooooooooooooooooooooooooooooooooooooooooooooooooooooooooooooooooooo................                O",
"       ........oooooooooooooooooooooooooooooooooooooooooooooooooooooooooooooooooooooooooooooooo................                O",
"       ........oooooooooooooooooooooooooooooooooooooooooooooooooooooooooooooooooooooooooooooooo................                O",
"       ........oooooooooooooooooooooooooooooooooooooooooooooooooooooooooooooooooooooooooooooooo................                O",
"       ........oooooooooooooooooooooooooooooooooooooooooooooooooooooooooooooooooooooooooooooooo................                O",
"ooooooooooooooooooooooooooooooooooooooooooooooo........ooooooooooooooooooooooooooooooooooooooooooooooooooooooooooooooooooooooooO",
"ooooooooooooooooooooooooooooooooooooooooooooooo........ooooooooooooooooooooooooooooooooooooooooooooooooooooooooooooooooooooooooO",
"ooooooooooooooooooooooooooooooooooooooooooooooo........ooooooooooooooooooooooooooooooooooooooooooooooooooooooooooooooooooooooooO",
"ooooooooooooooooooooooooooooooooooooooooooooooo........ooooooooooooooooooooooooooooooooooooooooooooooooooooooooooooooooooooooooO",
"ooooooooooooooooooooooooooooooooooooooooooooooo........ooooooooooooooooooooooooooooooooooooooooooooooooooooooooooooooooooooooooO",
"ooooooooooooooooooooooooooooooooooooooooooooooo........ooooooooooooooooooooooooooooooooooooooooooooooooooooooooooooooooooooooooO",
"ooooooooooooooooooooooooooooooooooooooooooooooo........ooooooooooooooooooooooooooooooooooooooooooooooooooooooooooooooooooooooooO",
"ooooooooooooooooooooooooooooooooooooooooooooooo........ooooooooooooooooooooooooooooooooooooooooooooooooooooooooooooooooooooooooO",
"oooooooooooooooooooooooooooooooooooooooooooooooooooooooooooooooooooooooooooooooooooooooooooooooooooooooooooooooooooooooooooooooO",
"oooooooooooooooooooooooooooooooooooooooooooooooooooooooooooooooooooooooooooooooooooooooooooooooooooooooooooooooooooooooooooooooO",
"oooooooooooooooooooooooooooooooooooooooooooooooooooooooooooooooooooooooooooooooooooooooooooooooooooooooooooooooooooooooooooooooO",
"oooooooooooooooooooooooooooooooooooooooooooooooooooooooooooooooooooooooooooooooooooooooooooooooooooooooooooooooooooooooooooooooO",
"oooooooooooooooooooooooooooooooooooooooooooooooooooooooooooooooooooooooooooooooooooooooooooooooooooooooooooooooooooooooooooooooO",
"oooooooooooooooooooooooooooooooooooooooooooooooooooooooooooooooooooooooooooooooooooooooooooooooooooooooooooooooooooooooooooooooO",
"oooooooooooooooooooooooooooooooooooooooooooooooooooooooooooooooooooooooooooooooooooooooooooooooooooooooooooooooooooooooooooooooO",
"oooooooooooooooooooooooooooooooooooooooooooooooooooooooooooooooooooooooooooooooooooooooooooooooooooooooooooooooooooooooooooooooO"
};
