/* XPM */
static char *_d9e205e6de647caacab9e6a23eed3645c3W18sKxqVaJZ15[] = {
/* columns rows colors chars-per-pixel */
"16 16 173 2 ",
"   c #335846",
".  c #355B46",
"X  c #375B4F",
"o  c #315257",
"O  c #3A5D59",
"+  c #3A6049",
"@  c #3B604F",
"#  c #395966",
"$  c #4F7B40",
"%  c #4C7648",
"&  c #4E774F",
"*  c #517B49",
"=  c #507A4C",
"-  c #4D7550",
";  c #4E7653",
":  c #517A50",
">  c #507853",
",  c #537C50",
"<  c #547E50",
"1  c #567F53",
"2  c #507855",
"3  c #517956",
"4  c #567E59",
"5  c #557D5A",
"6  c #547B60",
"7  c #567B6A",
"8  c #52822E",
"9  c #518030",
"0  c #70A23F",
"q  c #71A43D",
"w  c #72A53E",
"e  c #74A839",
"r  c #77AC3A",
"t  c #74A83C",
"y  c #75A83F",
"u  c #7AAF3D",
"i  c #548045",
"p  c #578348",
"a  c #59844C",
"s  c #6D9D47",
"d  c #6E9F46",
"f  c #68964E",
"g  c #6E9E48",
"h  c #6F9F4B",
"j  c #6B9A4C",
"k  c #6E9D4C",
"l  c #6F9E4E",
"z  c #6F9E50",
"x  c #6F9D52",
"c  c #6F9C5B",
"v  c #719F54",
"b  c #709E56",
"n  c #719F56",
"m  c #6FA047",
"M  c #71A342",
"N  c #73A641",
"B  c #73A542",
"V  c #74A742",
"C  c #74A643",
"Z  c #71A246",
"A  c #72A347",
"S  c #73A544",
"D  c #73A546",
"F  c #74A645",
"G  c #75A841",
"H  c #77AA41",
"J  c #75A843",
"K  c #76A944",
"L  c #77AA45",
"P  c #77A946",
"I  c #76A847",
"U  c #79AC45",
"Y  c #70A148",
"T  c #71A249",
"R  c #72A348",
"E  c #72A34A",
"W  c #73A448",
"Q  c #73A449",
"!  c #73A44B",
"~  c #74A549",
"^  c #75A748",
"/  c #74A54A",
"(  c #75A64A",
")  c #75A64B",
"_  c #76A74B",
"`  c #70A04C",
"'  c #73A34D",
"]  c #72A24E",
"[  c #73A34F",
"{  c #74A54C",
"}  c #75A64D",
"|  c #74A44E",
" . c #75A54F",
".. c #76A74E",
"X. c #77A948",
"o. c #77A84C",
"O. c #77A84D",
"+. c #77A84F",
"@. c #78AA49",
"#. c #79AB4A",
"$. c #78AA4B",
"%. c #78A94D",
"&. c #78A94E",
"*. c #79AA4E",
"=. c #79AA4F",
"-. c #7CAE4F",
";. c #7CB044",
":. c #72A150",
">. c #73A251",
",. c #74A352",
"<. c #74A353",
"1. c #74A450",
"2. c #75A551",
"3. c #76A650",
"4. c #77A751",
"5. c #75A453",
"6. c #76A652",
"7. c #77A753",
"8. c #73A254",
"9. c #74A355",
"0. c #74A257",
"q. c #75A454",
"w. c #76A554",
"e. c #77A655",
"r. c #75A456",
"t. c #76A557",
"y. c #77A656",
"u. c #78A756",
"i. c #78A757",
"p. c #78A950",
"a. c #79AA51",
"s. c #78A852",
"d. c #7AAB52",
"f. c #7BAC50",
"g. c #7BAC51",
"h. c #7BAC53",
"j. c #7CAD52",
"k. c #7EAF53",
"l. c #78A854",
"z. c #79A955",
"x. c #7BAB55",
"c. c #79A857",
"v. c #7AAA56",
"b. c #7CAD54",
"n. c #7CAC56",
"m. c #7EAF56",
"M. c #74A259",
"N. c #75A35A",
"B. c #76A459",
"V. c #77A658",
"C. c #77A55A",
"Z. c #76A45B",
"A. c #73A05F",
"S. c #75A25D",
"D. c #76A45C",
"F. c #77A45F",
"G. c #79A75C",
"H. c #78A65D",
"J. c #78A65E",
"K. c #7BAA59",
"L. c #79A85A",
"P. c #7AA95B",
"I. c #7CAB5D",
"U. c #7FB152",
"Y. c #7FB057",
"T. c #5B8263",
"R. c #76A360",
"E. c #76A362",
"W. c #77A461",
"Q. c #79A665",
"!. c #75A068",
"~. c #80B156",
"^. c #81B060",
/* pixels */
"] 1 B p.R.I D I p.m 2.i.>.P.h 2.",
"Z.@.i.] 2.2.S.&.o.p.p.8 2.]  .Y.",
"r.0 E a w <.r.e s n.2.h 2.c.Q ( ",
"D ^.( 2.* c.- Q.p.p.o.p.o. .&.( ",
"I & x 6 . , M.p.o.p.E  . .Q  .p.",
"j.b T.  # @ 2 $ E  . .n.E n.2.2.",
"j ~.B ( t ] 2.p.p.m n.E 2.] r.r.",
"U.x C P.F.( R.( E n.m  .p.r.9 Z.",
"o.E &.<.2.J c.2.( I.h p.I t r.Z.",
"o.r.G.2.Z.: &.M  . .-.Q Q g.o.C ",
"2 2.( Q r.F F.c. .A p.c.0.f 2.c.",
"C !.J o.@.2.o.M.A.o.: r.g.p &.% ",
"= P.1 ( I U s U u b r 2.k ( 7 + ",
"X 5 s k c.>.;.b r.i.j.>.i - O o ",
"Q 2.~.p.W.c 5 p.G.h ( I X.p.A g.",
"<.o.Q D J @.w Z.J X.G.8.p. .( 0."
};
