/* XPM */
static char *_a5a71c9dbed469ff5471f9db92e917e410IMUXSxngU2AlC[] = {
/* columns rows colors chars-per-pixel */
"16 16 38 1 ",
"  c None",
". c #30384C",
"X c #30394C",
"o c #32384C",
"O c #33384C",
"+ c #32394C",
"@ c #32384D",
"# c #323A4C",
"$ c #323B4C",
"% c #323A4D",
"& c #30394F",
"* c #32384E",
"= c #454A6C",
"- c #444B6D",
"; c #44496E",
": c #45496E",
"> c #444B6E",
", c #444A6F",
"< c #454A6F",
"1 c #444B6F",
"2 c #454B6F",
"3 c #464A6E",
"4 c #464B6F",
"5 c #696D94",
"6 c #696E94",
"7 c #686F94",
"8 c #696F94",
"9 c #696F95",
"0 c #6B6F95",
"q c #696F96",
"w c #6B6F97",
"e c #A2A6BC",
"r c #A2A6BD",
"t c #A2A4BE",
"y c #A2A6BE",
"u c #A3A6BE",
"i c #A2A7BE",
"p c #A2A6BF",
/* pixels */
"                ",
"                ",
"   ++++         ",
"  +yyyy++       ",
" +yyyyyyy+      ",
" +8yyyyy1+      ",
" +888y111+      ",
" +88811111++    ",
" +8881111yyy++  ",
" +888811yyyyyy+ ",
"+88818118yyyy1+ ",
"+8818881888y11+ ",
"+88888811888111+",
"+88818818888111+",
"+++88811++811++ ",
"   +++++  +++   "
};
