/* XPM */
static char *_811546063e34cf9fb4383321bb6e0af7utvXDQ4brl596Cx[] = {
/* columns rows colors chars-per-pixel */
"128 128 74 1 ",
"  c #32384C",
". c #456E48",
"X c #4B7449",
"o c #4F7949",
"O c #517C4B",
"+ c #547E50",
"@ c #444B6F",
"# c #568534",
"$ c #5A8A36",
"% c #5D8C3B",
"& c #62923E",
"* c #73A63E",
"= c #74A83D",
"- c #55814B",
"; c #5A864C",
": c #5E8A4D",
"> c #5A8452",
", c #5E8951",
"< c #618D4E",
"1 c #659442",
"2 c #689745",
"3 c #6B9A45",
"4 c #65934C",
"5 c #68974C",
"6 c #6D9C4B",
"7 c #709F4E",
"8 c #628E51",
"9 c #659251",
"0 c #699750",
"q c #6D9B51",
"w c #6B9858",
"e c #709F51",
"r c #719F59",
"t c #6FA047",
"y c #6FA048",
"u c #74A545",
"i c #76A945",
"p c #71A14D",
"a c #72A24E",
"s c #73A34F",
"d c #73A44C",
"f c #74A44C",
"g c #76A74C",
"h c #76A64F",
"j c #76A848",
"k c #77A849",
"l c #77A94A",
"z c #77A84D",
"x c #78A94D",
"c c #78A84F",
"v c #79AA4E",
"b c #73A250",
"n c #73A253",
"m c #75A353",
"M c #74A451",
"N c #76A651",
"B c #74A354",
"V c #75A555",
"C c #78A754",
"Z c #78A755",
"A c #77A850",
"S c #78A851",
"D c #79AA50",
"F c #79AA52",
"G c #7AAB54",
"H c #75A458",
"J c #77A659",
"K c #76A35F",
"L c #76A45C",
"P c #7AA958",
"I c #7DAC5B",
"U c #7EB052",
"Y c #696F94",
"T c #A2A6BE",
/* pixels */
"aaaaa6098,>>>>:4533uuuuuhlzxSSGHHHLKLHHVNhhlluuuuuuuuuuuuuulllllxxxSSzhhdaaataaadhNNNVVVZZZZZVVVNmmbbmNVVZGPPGVNmaa66aaaahNNNANN",
"aaaaa6098,>>>>:4433uuuuuhzzxSSGZHHLKKLHVNhglluuuuuuuuuuuuuulllllxxxSSzhhdaaataaadhNNNVVVZZZZZVVVNmmbbmNVVZGPPGVVNaa66aaaahNNNNNN",
"aaaaa6098,>>>>:4533uuuuhhzzxSSVVHLLKKHHVNhhlluuuuuuuuuuuuuulllllxxxSSzhhdaautaaadhNNNVVVZZZZZVVVNmmbbmmVVZGPPGVVNaaa6aaaahNNNANN",
"aaaaaq098,>>>>:4533uuuuhhzzxSSVVHHLKKHHVNhhlluuuuuuuuuuuuuulllllxxxSSzhhdaautaaadhNNAVVVZZZZZVVVNmmbbmmVVZGPPGVNNaaa6aaaahNNNNNN",
"aaaaa6q998,>>,<4533uuuuhhhzzSNVVHHLKKHHVNhghluuuuuuuuuuuuuullllzxxxSSzhhhaauuaaahhNNASZNNNNNNNNNmmmbmNNVVZZPGZVNNaaaaaaahhNNNNNN",
"bbbbbqq0998,,<4466uuuhhhhhhzNNVVVHLKKHVVNhhhhhhhhhhdgdhhhhhllllzxxxSSzhhhdaaaaahhNNNSNNNmbaaaaabbbbmmNNVVVZGGVNNaaaaaaahhNNSSSSS",
"bbbbbeqq0998<44566adhhhhhhhhNNNVVVHHHHVNNhhghhhhhhhhhhhhhhhllllzxxxSSzhhhhdaadhhhNNNNNNaa7666667aabmNNNNNVVVVNNNmaaaaaahNNSSSSSS",
"BBBBbbqqq004455667ahhhhhhhhhNNNVVVVHHVVNNhhghhhhhhhhddhhhhhlllzzxxxSSzAhhhhhhhhhhNNNNNaa663333666aamNNNNNNNVNNNNaaaaaahNNSSSGGGG",
"BBBBBbeqqq5555667aahhhhhhhhhNNNVVVVVBVVNNhhhhhhhhNmmNNNhhhhllzzzxxxSSzzhhhhhhhhhNNNNNaa63311113666aNNNNNNNNNNNmaaaaaahhNSSSGGGGG",
"HHHHBbbbee6666aaaaNNNNNNNNNhNNNNNNVVBmNNNNhhhhNNNBBBBNNNhhzlzzzzzxxxAzzzzhhhzzzSNNNSNa7631&%%&1366aNNNNNNNmmbaaaaaaaahNNSSGGGGGG",
"HHHHHBBmbaaaahahhNNNNNNNNNNhhNNNNNNVamNNNNhhhNNNVVBHHVVNNhzzxxxzzzzzzzzzzzzzzASSASSSNa631&%$$%&1367mNNNNNbaaaaaaaaaahhNSSSGGGGGG",
"HHHHHVVNNhhhhhhhNNNZVVVNNNNaaamNNNNNmNhhNNNNNNNBVHHHHHVVVNAxxxxxzzzzzzASSSSSSSSSSSSSNa62&%$##$%&36amNNNNaaaaaaaaaaaahhNSSGGUIIIU",
"LHHHHVVNhzllllxxSSZZVVVVmbbabbbbaaahhhhhNNNNNNVVVHHKHHVVVNAxxzzzzzzhzzzSSSSSSSSSSSSSNa32&%$##$%&26aNNNNNaaaaaaaaaaaahhSSSGGUGUUU",
"HHHHHVVNhhlllllhhNNVVVmbbee6667aaaadhhhhhhNNNNVVVHHHHHVVNhzlllllhhhhhzzzSSSSSSSSSSSSNa631&%$$%&136aNNNNNNaaaaaaaaadahhASSSSGGGGG",
"HHHHHVNNhhhuuhhhhhNNNmbbeq6656667aaadhhhhhNNNNVVVBHHHVVNhhlllllhhhhhhhzzzSSSSSSSSSSSNa631&&%%&&136aNNNNNNNhhaadhhhhhhhzSSSSSSSSS",
"HHHHHVNNhhhuuuhhhhhNNbbq665555566aaaddhhhhNNNNVVVVHHHVNNhhhllluhhhhddhhzzSSSSSSSSSSNNa6331&&&&1236ahNNNNNNNNNhhhhhhhhhhzxSSSSSSS",
"HHHHVVNhhduuuuuhhhhhaa7                                hhhuiiiuuuuaaaahhzxSSSSSSSSSNhaa6321&&&233aaNNNNNNNNNNNNhhhhhhhhhhzxxSSSS",
"HHHHVNNhhauuuuuuaahhaa6                                hhuii=iiuuuuaadhhhxSSSSSSSSANhaa6332112336aaNNNNNNNNNNNNhhhhhhhhhhhzzzzzz",
"HHHVVNNhauuuuuuuuaada66                                hhui===*uuuuutadhhSSSSSSSSSNNhhaaa3332336aahhNNNNSSSSGSNNhhhhddddhhhhhhhh",
"VVVVVNaaauuu*uuuuuaaa66                                hui==****uttt3adhhSSSGSSSSSNhhhaaaa63336aaahNNNNSSSGGGSSNhhhddaadhhhggghh",
"VVVVVmaaauuuuuuuuuaaa66                                hui===**uuuuttadhhSSSSSSSSSNNhhhaaaay6aaaahhhNNNSSSGGGSSAhhhdddhhddddhhgg",
"mNmNmmhahhuuuuuuuddda66                                aauuiiiuuuuuuaadhzSSSSSSSSSNNhhhhdaaaaaaahhhhNNNSSSSSSSSAhhhdhhhhddddhhgd",
"bbNNNNhhhhhhhhhhhhddaa6                                6aaduuuuhuuaaadhhzSSSSSSSSSNNhhhhhaaaaaahhhhhNNNSSSSSSSSAhhhhghhhddghhhdd",
"aahhhhhhhhhzzhhhhhhhaa6                                q6aahhhhhhhdddhhhzSSSSSSSSSANhhhhhhhddhhhhhhhNNNAASSSSSAzhhhhhhhhgdghhhdd",
"ahhhhhhhNxSSSSx        TTTTTTTTTTTTTTTTTTTTTTTTTTTTTTTT                hzSSSSSSSSSANhhhhhhhhhhhhhhhhNNNNAAASxzzzzzhhhhhhhhhhdddd",
"hhhhhhhASSSGGGS        TTTTTTTTTTTTTTTTTTTTTTTTTTTTTTTT                zzSSSSSSSSAAhhhhhzzhhhhhhhhhhhhhhhhhhzzzzzzzzzhhhhhhhhhdd",
"ddddhhhSSGGIIGG        TTTTTTTTTTTTTTTTTTTTTTTTTTTTTTTT                zSSSSSSSSSAzzzzzAAASSSSAAAzzzhhhhhhhhhhhzzzxxxzzhgghhhhgg",
"uuuuhhzSGGIIIII        TTTTTTTTTTTTTTTTTTTTTTTTTTTTTTTT                SSSSSSSSSAzzzzzSSSSSSSSSSSSzzzhhhhhhhhhhzzxxxxxzzghhhhhgg",
"uuuuuhhSGGIIIIP        TTTTTTTTTTTTTTTTTTTTTTTTTTTTTTTT                SSSSSSSSzzzzzzzSSSSSSSSSxSSzzzhhhhhhhhhhhzzxxxxzzgghhhhgg",
"uuuuuhhNNVHHLHH        TTTTTTTTTTTTTTTTTTTTTTTTTTTTTTTT                SSSSSSSSzzzhhhhzzSSSSSxxxSzzzhhhhhhhhhhhhhzzxxzzzhghhhhgg",
"uuuuuddabbbrrrb        TTTTTTTTTTTTTTTTTTTTTTTTTTTTTTTT                SSSSSSSSzzhhhhhhhzzSSSSxzzzzhhhhhhhhhhhhhhhzzzzzzhhhghggg",
"uuuuudaaqqqwwqq        TTTTTTTTTTTTTTTTTTTTTTTTTTTTTTTT                SSSSSSSzzhhhhhhhhhhzzzzzzzhhhhhhhhhhhhhhhhhhzzzzhhhhhhhhh",
"uuuuuaa        TTTTTTTTTTTTTTTTTTTTTTTTTTTTTTTTTTTTTTTTTTTTTTTTTTTTTTTT        zzhhhhhhhhhhhhhhhhhhhhhhhhhhhddhhhhhhhhhhhzzzzzzz",
"lllluu6        TTTTTTTTTTTTTTTTTTTTTTTTTTTTTTTTTTTTTTTTTTTTTTTTTTTTTTTT        zzhhdddhhhhhhhhhhhhhhhhhhhhhhdhhhhhhhhhhhzzzzzzzz",
"lliluu6        TTTTTTTTTTTTTTTTTTTTTTTTTTTTTTTTTTTTTTTTTTTTTTTTTTTTTTTT        zhhddadddhdhhhhhhhhhhhhhdhhdddhhhhghhhhhhzzzxSSSS",
"iiiiut6        TTTTTTTTTTTTTTTTTTTTTTTTTTTTTTTTTTTTTTTTTTTTTTTTTTTTTTTT        zhhddaaadddhhhhhhhhhhhhddhhdddddhhghhhhhhzzSSSSSS",
"llllut6        TTTTTTTTTTTTTTTTTTTTTTTTTTTTTTTTTTTTTTTTTTTTTTTTTTTTTTTT        zhgdaaaadddhhhhhhhhhhhhddhdddhhhhdhhhhhhhzASSSSSS",
"llilua6        TTTTTTTTTTTTTTTTTTTTTTTTTTTTTTTTTTTTTTTTTTTTTTTTTTTTTTTT        zhgdaaaddhhhhhhhhhhhhhhdhhhhhhhhhhhdhhhhhhAASSSSS",
"llllla6        TTTTTTTTTTTTTTTTTTTTTTTTTTTTTTTTTTTTTTTTTTTTTTTTTTTTTTTT        zhhhdddhhhhhhhhzhhhhhhhhhhhhhhhhhhhhhhhhhhNAAAAAA",
"lllllda        TTTTTTTTTTTTTTTTTTTTTTTTTTTTTTTTTTTTTTTTTTTTTTTTTTTTTTTT        zhhhddhhhhhzzzzhzhhhhhhhhhhhNNhhhhhhhhhhhhNNNNNNN",
"llxxxha        YYYYYYYYTTTTTTTTTTTTTTTTTTTTTTTTTTTTTTTTTTTTTTTT@@@@@@@@        hhhhhhhhhhzSSSAzzhhhhhhhhhhASSANNhhhhhhhhhNNNNNNN",
"xxxxxzN        YYYYYYYYTTTTTTTTTTTTTTTTTTTTTTTTTTTTTTTTTTTTTTTT@@@@@@@@        hhhhhhhhzzSSSSSzzhhhddhhhhASSSSSANhhhhhhhNNNNNNNN",
"xxxxSSN        YYYYYYYYTTTTTTTTTTTTTTTTTTTTTTTTTTTTTTTTTTTTTTTT@@@@@@@@        hhhhhhzzzSSSSSSSzhhddddhhNSSSGSSSANhNhhNNNNNNNNNN",
"SSSSSSS        YYYYYYYYTTTTTTTTTTTTTTTTTTTTTTTTTTTTTTTTTTTTTTTT@@@@@@@@        hhhhhzzASSSSSSSSzhhddddhhASSGGGGSASNNNNNNNNNNNNNN",
"SSSSSSS        YYYYYYYYTTTTTTTTTTTTTTTTTTTTTTTTTTTTTTTTTTTTTTTT@@@@@@@@        hhhhhzzSSSSSSSSSzhhhddhhhASGGGGGSSSNNNNNNNNbbmmmm",
"SSSSSSN        YYYYYYYYTTTTTTTTTTTTTTTTTTTTTTTTTTTTTTTTTTTTTTTT@@@@@@@@        hhhzzSSSSSSSSSSSzhhhddhhhNSSGGGSSSNNNNNNNNNbbmmmm",
"NNNNANN        YYYYYYYYTTTTTTTTTTTTTTTTTTTTTTTTTTTTTTTTTTTTTTTT@@@@@@@@        hhzzxSSSSSSSSSSzzhhhhhhhhNNSSSSSZNNNNNNNNNNNNNNmN",
"hhhhNNN        YYYYYYYYTTTTTTTTTTTTTTTTTTTTTTTTTTTTTTTTTTTTTTTT@@@@@@@@        hhzxSSSSSSSSSzzzzhhhhhhhhNNNNNNNNNNNNNNNNNNNNNNmm",
"aaaaamN        YYYYYYYYYYYYYYYYYYYYYYYYTTTTTTTT@@@@@@@@@@@@@@@@@@@@@@@@        hxSSSSSSSxxzzhhhhhhhhhhhhNNNNNNNNNNNNNNNNNNNNNNNN",
"aaaaaam        YYYYYYYYYYYYYYYYYYYYYYYYTTTTTTTT@@@@@@@@@@@@@@@@@@@@@@@@        hxSSSSSSSxzhhhhhhhhhhhhhNNNNNNNNNNNNNNNVVNNNNNNNN",
"66666ab        YYYYYYYYYYYYYYYYYYYYYYYYTTTTTTTT@@@@@@@@@@@@@@@@@@@@@@@@        hxSSGGSSSShhhdhhhhhhhNNNNNNNNNNNNNNNNNNNVBmNNNNNN",
"666667a        YYYYYYYYYYYYYYYYYYYYYYYYTTTTTTTT@@@@@@@@@@@@@@@@@@@@@@@@        hxSSGGSSSzhhdddhhhhhhNNNNhhaaaamNNNNNVVVVBVVVVVVV",
"666667a        YYYYYYYYYYYYYYYYYYYYYYYYTTTTTTTT@@@@@@@@@@@@@@@@@@@@@@@@        hxSSGSSSSzhhdadhhhhNNNNNNNhaaaaabbbbmmmmBBBVVVVVV",
"66667ab        YYYYYYYYYYYYYYYYYYYYYYYYTTTTTTTT@@@@@@@@@@@@@@@@@@@@@@@@        hxSSSSSSzhhhddddhhhNNNNNNNNmaaaaaa77667ebbbmVVVVV",
"aaaaaaN        YYYYYYYYYYYYYYYYYYYYYYYYTTTTTTTT@@@@@@@@@@@@@@@@@@@@@@@@        hzzSSSzzzhhhhdddhhhNNNNNNNNNbaaa666666666ebbVVVVV",
"hhhhhNN        YYYYYYYYYYYYYYYYYYYYYYYYTTTTTTTT@@@@@@@@@@@@@@@@@@@@@@@@        hhzAAzzhhhhhhddhhhNNNNNNNNNNmba66663223666ebVVVVV",
"zzhhAAA        YYYYYYYYYYYYYYYYYYYYYYYY@@@@@@@@@@@@@@@@@@@@@@@@@@@@@@@@@@@@@@@@                hhNNNNNNNNNNNba66321111266ebVVVVV",
"SSSSSSS        YYYYYYYYYYYYYYYYYYYYYYYY@@@@@@@@@@@@@@@@@@@@@@@@@@@@@@@@@@@@@@@@                hNNNNNNNNNNNmb766211%%11256bVVVVV",
"SSSSSSS        YYYYYYYYYYYYYYYYYYYYYYYY@@@@@@@@@@@@@@@@@@@@@@@@@@@@@@@@@@@@@@@@                hNNNSSNNNNNNNb76311%$$%1166bVVVZZ",
"UUUUSSS        YYYYYYYYYYYYYYYYYYYYYYYY@@@@@@@@@@@@@@@@@@@@@@@@@@@@@@@@@@@@@@@@                NNNASSNNNNNNNm6621%$##$%126eVHHHH",
"UUUUSSS        YYYYYYYYYYYYYYYYYYYYYYYY@@@@@@@@@@@@@@@@@@@@@@@@@@@@@@@@@@@@@@@@                NNASSSNNNNNNNm6621%$##$%156eVHHHH",
"UUUUSSS        YYYYYYYYYYYYYYYYYYYYYYYY@@@@@@@@@@@@@@@@@@@@@@@@@@@@@@@@@@@@@@@@                hzAASANhNhhhhha6211%$$%1266bVHHHH",
"SSSSSSx        YYYYYYYYYYYYYYYYYYYYYYYY@@@@@@@@@@@@@@@@@@@@@@@@@@@@@@@@@@@@@@@@                zzzzzzzhhhhhhha6321&%%12556bVHHHH",
"xxxxxxx        YYYYYYYYYYYYYYYYYYYYYYYY@@@@@@@@@@@@@@@@@@@@@@@@@@@@@@@@@@@@@@@@                zzzzzzzhhhhhhha33321112566ebVHHHH",
"xxxxxxz        YYYYYYYYYYYYYYYYYYYYYYYY@@@@@@@@@@@@@@@@@@@@@@@@@@@@@@@@TTTTTTTTTTTTTTTTTTTTTTTT                333322366qbbHHHHH",
"xxxxxxz        YYYYYYYYYYYYYYYYYYYYYYYY@@@@@@@@@@@@@@@@@@@@@@@@@@@@@@@@TTTTTTTTTTTTTTTTTTTTTTTT                ua666666ebbBHHHHH",
"xxxxxzz        YYYYYYYYYYYYYYYYYYYYYYYY@@@@@@@@@@@@@@@@@@@@@@@@@@@@@@@@TTTTTTTTTTTTTTTTTTTTTTTT                daaa77bbbbBBHHHHH",
"zxxxzzl        YYYYYYYYYYYYYYYYYYYYYYYY@@@@@@@@@@@@@@@@@@@@@@@@@@@@@@@@TTTTTTTTTTTTTTTTTTTTTTTT                hhhhNNVVVVVHHHHHH",
"zzzzzhh        YYYYYYYYYYYYYYYYYYYYYYYY@@@@@@@@@@@@@@@@@@@@@@@@@@@@@@@@TTTTTTTTTTTTTTTTTTTTTTTT                hhhNNVVVVVVVVVVVV",
"zzzzzhh        YYYYYYYYYYYYYYYYYYYYYYYY@@@@@@@@@@@@@@@@@@@@@@@@@@@@@@@@TTTTTTTTTTTTTTTTTTTTTTTT                lhhNNNVVVVVVVVVVV",
"zzzzzhh        YYYYYYYYYYYYYYYYYYYYYYYY@@@@@@@@@@@@@@@@@@@@@@@@@@@@@@@@TTTTTTTTTTTTTTTTTTTTTTTT                lzhNNNNNNNNNNNNNN",
"zzzzzhh        YYYYYYYYYYYYYYYYYYYYYYYY@@@@@@@@@@@@@@@@@@@@@@@@@@@@@@@@TTTTTTTTTTTTTTTTTTTTTTTT                lzzhNNNNNNNhhhhhh",
"zzzzzhh        YYYYYYYYYYYYYYYYYYYYYYYYYYYYYYYY@@@@@@@@@@@@@@@@TTTTTTTTTTTTTTTTTTTTTTTTTTTTTTTTTTTTTTTTTTTTTTTT        hhhhhhhh ",
"zzzzzhh        YYYYYYYYYYYYYYYYYYYYYYYYYYYYYYYY@@@@@@@@@@@@@@@@TTTTTTTTTTTTTTTTTTTTTTTTTTTTTTTTTTTTTTTTTTTTTTTT        hhhhhhhh ",
"zzzzzhh        YYYYYYYYYYYYYYYYYYYYYYYYYYYYYYYY@@@@@@@@@@@@@@@@TTTTTTTTTTTTTTTTTTTTTTTTTTTTTTTTTTTTTTTTTTTTTTTT        hhhhuuuu ",
"zzzzzNN        YYYYYYYYYYYYYYYYYYYYYYYYYYYYYYYY@@@@@@@@@@@@@@@@TTTTTTTTTTTTTTTTTTTTTTTTTTTTTTTTTTTTTTTTTTTTTTTT        huuuuiii ",
"hhhhNNN        YYYYYYYYYYYYYYYYYYYYYYYYYYYYYYYY@@@@@@@@@@@@@@@@TTTTTTTTTTTTTTTTTTTTTTTTTTTTTTTTTTTTTTTTTTTTTTTT        huuuuiii ",
"eeeeebb        YYYYYYYYYYYYYYYYYYYYYYYYYYYYYYYY@@@@@@@@@@@@@@@@TTTTTTTTTTTTTTTTTTTTTTTTTTTTTTTTTTTTTTTTTTTTTTTT        lhuuuuuu ",
"qqqqqqq        YYYYYYYYYYYYYYYYYYYYYYYYYYYYYYYY@@@@@@@@@@@@@@@@TTTTTTTTTTTTTTTTTTTTTTTTTTTTTTTTTTTTTTTTTTTTTTTT        llllllll ",
"999990q        YYYYYYYYYYYYYYYYYYYYYYYYYYYYYYYY@@@@@@@@@@@@@@@@TTTTTTTTTTTTTTTTTTTTTTTTTTTTTTTTTTTTTTTTTTTTTTTT        zlllllll ",
"       YYYYYYYYYYYYYYYYYYYYYYYY@@@@@@@@YYYYYYYY@@@@@@@@@@@@@@@@YYYYYYYYTTTTTTTTTTTTTTTTTTTTTTTTTTTTTTTT@@@@@@@@        zzzzzzzz ",
"       YYYYYYYYYYYYYYYYYYYYYYYY@@@@@@@@YYYYYYYY@@@@@@@@@@@@@@@@YYYYYYYYTTTTTTTTTTTTTTTTTTTTTTTTTTTTTTTT@@@@@@@@        AAAzzzzz ",
"       YYYYYYYYYYYYYYYYYYYYYYYY@@@@@@@@YYYYYYYY@@@@@@@@@@@@@@@@YYYYYYYYTTTTTTTTTTTTTTTTTTTTTTTTTTTTTTTT@@@@@@@@        ASSSSSSS ",
"       YYYYYYYYYYYYYYYYYYYYYYYY@@@@@@@@YYYYYYYY@@@@@@@@@@@@@@@@YYYYYYYYTTTTTTTTTTTTTTTTTTTTTTTTTTTTTTTT@@@@@@@@        SSSGGGGG ",
"       YYYYYYYYYYYYYYYYYYYYYYYY@@@@@@@@YYYYYYYY@@@@@@@@@@@@@@@@YYYYYYYYTTTTTTTTTTTTTTTTTTTTTTTTTTTTTTTT@@@@@@@@        NNVVVVVV ",
"       YYYYYYYYYYYYYYYYYYYYYYYY@@@@@@@@YYYYYYYY@@@@@@@@@@@@@@@@YYYYYYYYTTTTTTTTTTTTTTTTTTTTTTTTTTTTTTTT@@@@@@@@        Nbbbbeee ",
"       YYYYYYYYYYYYYYYYYYYYYYYY@@@@@@@@YYYYYYYY@@@@@@@@@@@@@@@@YYYYYYYYTTTTTTTTTTTTTTTTTTTTTTTTTTTTTTTT@@@@@@@@        beqqqqqq ",
"       YYYYYYYYYYYYYYYYYYYYYYYY@@@@@@@@YYYYYYYY@@@@@@@@@@@@@@@@YYYYYYYYTTTTTTTTTTTTTTTTTTTTTTTTTTTTTTTT@@@@@@@@        eqq04444 ",
"       YYYYYYYYYYYYYYYY@@@@@@@@YYYYYYYYYYYYYYYYYYYYYYYY@@@@@@@@YYYYYYYYYYYYYYYYYYYYYYYYTTTTTTTT@@@@@@@@@@@@@@@@        6544<<<< ",
"       YYYYYYYYYYYYYYYY@@@@@@@@YYYYYYYYYYYYYYYYYYYYYYYY@@@@@@@@YYYYYYYYYYYYYYYYYYYYYYYYTTTTTTTT@@@@@@@@@@@@@@@@        544<:;;; ",
"       YYYYYYYYYYYYYYYY@@@@@@@@YYYYYYYYYYYYYYYYYYYYYYYY@@@@@@@@YYYYYYYYYYYYYYYYYYYYYYYYTTTTTTTT@@@@@@@@@@@@@@@@        54:;---- ",
"       YYYYYYYYYYYYYYYY@@@@@@@@YYYYYYYYYYYYYYYYYYYYYYYY@@@@@@@@YYYYYYYYYYYYYYYYYYYYYYYYTTTTTTTT@@@@@@@@@@@@@@@@        5<:-Oooo ",
"       YYYYYYYYYYYYYYYY@@@@@@@@YYYYYYYYYYYYYYYYYYYYYYYY@@@@@@@@YYYYYYYYYYYYYYYYYYYYYYYYTTTTTTTT@@@@@@@@@@@@@@@@        4:;OoXXX ",
"       YYYYYYYYYYYYYYYY@@@@@@@@YYYYYYYYYYYYYYYYYYYYYYYY@@@@@@@@YYYYYYYYYYYYYYYYYYYYYYYYTTTTTTTT@@@@@@@@@@@@@@@@        <;-OXXXX ",
"       YYYYYYYYYYYYYYYY@@@@@@@@YYYYYYYYYYYYYYYYYYYYYYYY@@@@@@@@YYYYYYYYYYYYYYYYYYYYYYYYTTTTTTTT@@@@@@@@@@@@@@@@        ,-OoX... ",
"       YYYYYYYYYYYYYYYY@@@@@@@@YYYYYYYYYYYYYYYYYYYYYYYY@@@@@@@@YYYYYYYYYYYYYYYYYYYYYYYYTTTTTTTT@@@@@@@@@@@@@@@@        >+OX.... ",
"       YYYYYYYYYYYYYYYYYYYYYYYYYYYYYYYYYYYYYYYYYYYYYYYY@@@@@@@@@@@@@@@@YYYYYYYYYYYYYYYYYYYYYYYY@@@@@@@@@@@@@@@@@@@@@@@@         ",
"       YYYYYYYYYYYYYYYYYYYYYYYYYYYYYYYYYYYYYYYYYYYYYYYY@@@@@@@@@@@@@@@@YYYYYYYYYYYYYYYYYYYYYYYY@@@@@@@@@@@@@@@@@@@@@@@@         ",
"       YYYYYYYYYYYYYYYYYYYYYYYYYYYYYYYYYYYYYYYYYYYYYYYY@@@@@@@@@@@@@@@@YYYYYYYYYYYYYYYYYYYYYYYY@@@@@@@@@@@@@@@@@@@@@@@@         ",
"       YYYYYYYYYYYYYYYYYYYYYYYYYYYYYYYYYYYYYYYYYYYYYYYY@@@@@@@@@@@@@@@@YYYYYYYYYYYYYYYYYYYYYYYY@@@@@@@@@@@@@@@@@@@@@@@@         ",
"       YYYYYYYYYYYYYYYYYYYYYYYYYYYYYYYYYYYYYYYYYYYYYYYY@@@@@@@@@@@@@@@@YYYYYYYYYYYYYYYYYYYYYYYY@@@@@@@@@@@@@@@@@@@@@@@@         ",
"       YYYYYYYYYYYYYYYYYYYYYYYYYYYYYYYYYYYYYYYYYYYYYYYY@@@@@@@@@@@@@@@@YYYYYYYYYYYYYYYYYYYYYYYY@@@@@@@@@@@@@@@@@@@@@@@@         ",
"       YYYYYYYYYYYYYYYYYYYYYYYYYYYYYYYYYYYYYYYYYYYYYYYY@@@@@@@@@@@@@@@@YYYYYYYYYYYYYYYYYYYYYYYY@@@@@@@@@@@@@@@@@@@@@@@@         ",
"       YYYYYYYYYYYYYYYYYYYYYYYYYYYYYYYYYYYYYYYYYYYYYYYY@@@@@@@@@@@@@@@@YYYYYYYYYYYYYYYYYYYYYYYY@@@@@@@@@@@@@@@@@@@@@@@@         ",
"       YYYYYYYYYYYYYYYYYYYYYYYY@@@@@@@@YYYYYYYYYYYYYYYY@@@@@@@@YYYYYYYYYYYYYYYYYYYYYYYYYYYYYYYY@@@@@@@@@@@@@@@@@@@@@@@@         ",
"       YYYYYYYYYYYYYYYYYYYYYYYY@@@@@@@@YYYYYYYYYYYYYYYY@@@@@@@@YYYYYYYYYYYYYYYYYYYYYYYYYYYYYYYY@@@@@@@@@@@@@@@@@@@@@@@@         ",
"       YYYYYYYYYYYYYYYYYYYYYYYY@@@@@@@@YYYYYYYYYYYYYYYY@@@@@@@@YYYYYYYYYYYYYYYYYYYYYYYYYYYYYYYY@@@@@@@@@@@@@@@@@@@@@@@@         ",
"       YYYYYYYYYYYYYYYYYYYYYYYY@@@@@@@@YYYYYYYYYYYYYYYY@@@@@@@@YYYYYYYYYYYYYYYYYYYYYYYYYYYYYYYY@@@@@@@@@@@@@@@@@@@@@@@@         ",
"       YYYYYYYYYYYYYYYYYYYYYYYY@@@@@@@@YYYYYYYYYYYYYYYY@@@@@@@@YYYYYYYYYYYYYYYYYYYYYYYYYYYYYYYY@@@@@@@@@@@@@@@@@@@@@@@@         ",
"       YYYYYYYYYYYYYYYYYYYYYYYY@@@@@@@@YYYYYYYYYYYYYYYY@@@@@@@@YYYYYYYYYYYYYYYYYYYYYYYYYYYYYYYY@@@@@@@@@@@@@@@@@@@@@@@@         ",
"       YYYYYYYYYYYYYYYYYYYYYYYY@@@@@@@@YYYYYYYYYYYYYYYY@@@@@@@@YYYYYYYYYYYYYYYYYYYYYYYYYYYYYYYY@@@@@@@@@@@@@@@@@@@@@@@@         ",
"       YYYYYYYYYYYYYYYYYYYYYYYY@@@@@@@@YYYYYYYYYYYYYYYY@@@@@@@@YYYYYYYYYYYYYYYYYYYYYYYYYYYYYYYY@@@@@@@@@@@@@@@@@@@@@@@@         ",
"                       YYYYYYYYYYYYYYYYYYYYYYYY@@@@@@@@@@@@@@@@                YYYYYYYY@@@@@@@@@@@@@@@@                >>>>>>>>>",
"                       YYYYYYYYYYYYYYYYYYYYYYYY@@@@@@@@@@@@@@@@                YYYYYYYY@@@@@@@@@@@@@@@@                <88899999",
"                       YYYYYYYYYYYYYYYYYYYYYYYY@@@@@@@@@@@@@@@@                YYYYYYYY@@@@@@@@@@@@@@@@                555qqqqqq",
"                       YYYYYYYYYYYYYYYYYYYYYYYY@@@@@@@@@@@@@@@@                YYYYYYYY@@@@@@@@@@@@@@@@                aahhNNNNN",
"                       YYYYYYYYYYYYYYYYYYYYYYYY@@@@@@@@@@@@@@@@                YYYYYYYY@@@@@@@@@@@@@@@@                hhxxSSSSS",
"                       YYYYYYYYYYYYYYYYYYYYYYYY@@@@@@@@@@@@@@@@                YYYYYYYY@@@@@@@@@@@@@@@@                hhxSSSSSS",
"                       YYYYYYYYYYYYYYYYYYYYYYYY@@@@@@@@@@@@@@@@                YYYYYYYY@@@@@@@@@@@@@@@@                hhxSSSSGG",
"                       YYYYYYYYYYYYYYYYYYYYYYYY@@@@@@@@@@@@@@@@                YYYYYYYY@@@@@@@@@@@@@@@@                hhNZZGGGG",
"aaaahhahhhhhhhzzSSSSxxx                                        NNAzzzhhhghhudhh                        zzzhhhhhhhhhhhhhhhNNNVVVV",
"mmmmmmahhhhhhhhhzzzzzzh                                        Nhzzllllhhhuuhhh                        zzhhhhhhhhhhhhhhhhNNNVVVV",
"mmmmbbNNhhhhhhhhhhhhhhh                                        Nhzlllllliiuuhhh                        AzhhhhhhhgghhhhhhNNmmBBBB",
"mmmmbNNNhhhhzhhhhhhhhhh                                        hhllliiiliiiilzz                        AzhhhddghghhhhhhNNNBbBBBH",
"mmmmmNNNNhhzzhhhhhgdauu                                        hhlliiiiiiillllz                        AzhhhhhhhgghhhhhNNmBBBBHH",
"mmmmmNNNNhhzzhhhhhgdduu                                        hhlliiiiillllllz                        AzhhhhhhhgghhhhhhNmBBBBHH",
"mmmmmNNNNhhzzhhhhhgdduu                                        hhlliiiiilllllzz                        AzhhhhhhhgggghhhhNmBBBHHH",
"mmmmmNNNNhhzzhhhhhgdauu                                        hhlliiiiilllllzz                        AzhhhhhhhgggghhhhNmBBHBHH"
};
